<svg width="114" height="32" viewBox="0 0 114 32" fill="none" xmlns="http://www.w3.org/2000/svg">
<g clip-path="url(#clip0_181_6039)">
<path d="M15.7481 31.5C7.06667 31.5 0 24.5447 0 16C0 7.45531 7.06667 0.5 15.7481 0.5C24.4296 0.5 31.4963 7.45531 31.4963 16C31.4963 24.5447 24.4296 31.5 15.7481 31.5ZM15.6889 9.8904C15.7111 9.8904 16.9704 11.2173 16.9704 12.2817C16.9704 13.4337 16.0593 13.7034 15.7481 13.7034C15.7333 13.7034 15.7111 13.7034 15.6963 13.7034H15.6815C15.6593 13.7034 15.6444 13.7034 15.6296 13.7034C15.3259 13.7034 14.4074 13.4264 14.4074 12.2817C14.4074 11.2173 15.6667 9.8904 15.6889 9.8904ZM3.82963 16.8603H5.26667V14.2502H7.68148V13.1566H5.26667V11.7058H7.76296V10.6122H3.82963V16.8603ZM16.9926 10.08H18.5111L16.7481 3.83184H14.8148L12.9926 10.08H14.3926L14.7926 8.68015H16.6296L16.9926 10.08ZM16.363 7.623H15.037L15.6519 4.90357H15.7556L16.363 7.623ZM23.0148 13.7399C23.0148 15.5771 23.8815 16.9697 25.7037 16.9697C27.5333 16.9697 28.4074 15.5771 28.4074 13.7399C28.4074 11.9026 27.5333 10.5101 25.7037 10.5101C23.8815 10.5101 23.0148 11.9026 23.0148 13.7399ZM24.5407 13.7399C24.5407 12.5442 24.837 11.5673 25.7037 11.5673C26.5704 11.5673 26.8815 12.5442 26.8815 13.7399C26.8815 14.9428 26.5704 15.9125 25.7037 15.9125C24.8444 15.9125 24.5407 14.9356 24.5407 13.7399ZM15.0741 29.7721C15.1556 29.167 15.2444 28.1973 15.2444 27.06C15.2444 26.7465 15.2444 26.9579 15.2444 26.8704C15.2444 25.2738 15.1852 24.727 14.0963 24.377C12.4222 23.8302 11.7333 21.9929 12.1037 19.6964L6.4963 5.65452C3.57778 8.18438 1.74074 11.8808 1.74074 16C1.74074 23.3855 7.66667 29.4294 15.0741 29.7721ZM15.7407 20.8191C13.5111 20.3088 12.6815 18.3039 12.6815 16.5322L7.77037 4.67027C7.45185 4.88899 7.14074 5.1223 6.83704 5.36289C7.91852 7.88547 12.763 19.2006 12.7704 19.2152C13.6296 21.2493 15.1852 20.5713 15.563 22.2554C15.6519 22.6637 15.6593 22.8387 15.6593 22.8387H15.8296C15.8296 22.8387 15.8296 22.6637 15.9259 22.2554C16.3037 20.5786 17.8593 21.2493 18.7185 19.2152C18.7259 19.2006 23.5704 7.87817 24.6519 5.36289C24.3481 5.1223 24.0444 4.88899 23.7185 4.67027L18.8148 16.5322C18.8148 18.3111 17.9852 20.3088 15.7556 20.8191H15.7407ZM15.7407 17.2394C14.7926 17.028 13.6148 16.1094 13.4593 14.9137C13.4074 14.4617 13.363 14.3377 13.4296 13.4337L9.12593 3.85372C8.77778 4.03598 8.44444 4.24012 8.11111 4.45155C9.4 7.29492 13.3333 15.9854 13.3333 16C13.9556 17.2905 15.0444 17.3123 15.4222 18.0851C15.6519 18.5372 15.6667 18.9454 15.6741 18.9819H15.8148C15.8148 18.9527 15.8444 18.5444 16.0667 18.0851C16.4444 17.3196 17.5407 17.2905 18.1556 16C18.1556 15.9927 22.0963 7.29492 23.3778 4.45155C23.0519 4.24012 22.7111 4.04327 22.363 3.85372L18.0667 13.441C18.1333 14.3377 18.0889 14.469 18.0296 14.921C17.8741 16.1094 16.6963 17.0353 15.7556 17.2467H15.7407V17.2394ZM15.8 15.6136L15.8667 15.0887C16.1407 13.8711 17.037 14.0242 17.6519 12.8358C17.6519 12.8286 17.6593 12.8213 17.6593 12.8213C17.6741 12.7775 20.7185 6.34713 21.9926 3.66416C20.1111 2.73824 17.9926 2.21331 15.7481 2.21331C13.5037 2.21331 11.3852 2.73824 9.4963 3.66416C10.763 6.34713 13.8074 12.7775 13.8296 12.8213L13.837 12.8358C14.4519 14.0242 15.3481 13.8784 15.6222 15.0887L15.6889 15.6136H15.8ZM29.7556 16C29.7556 11.8808 27.9111 8.18438 25 5.65452L19.3852 19.6891C19.7556 21.9857 19.0667 23.8229 17.3926 24.3697C16.3037 24.727 16.2444 25.2665 16.2444 26.8631C16.2444 26.9506 16.2444 26.7392 16.2444 27.0527C16.2444 28.19 16.3333 29.1597 16.4148 29.7648C23.8296 29.4294 29.7556 23.3855 29.7556 16ZM6.17037 20.0755C6.17037 20.0755 6.37778 20.5056 6.54815 20.8191C6.71852 21.1254 6.94074 21.4972 6.94074 21.4972L6.57037 21.7086C6.57037 21.7086 6.28889 21.2493 6.02963 20.7171C5.95556 20.7535 5.51852 20.9795 5.44444 21.016C5.48889 21.0962 5.94074 21.9565 5.94074 21.9565L5.56296 22.1679C5.56296 22.1679 5.1037 21.2857 5.06667 21.2128C4.98519 21.2493 4.02963 21.7378 4.02963 21.7378L3.8 21.293L6.14074 20.0974L6.17037 20.0755ZM7.64444 22.4304L7.97037 22.8168L5.92593 24.5009L5.59259 24.1145L7.62222 22.445L7.64444 22.4304ZM9.54074 24.1947L9.94815 24.4791L9.42222 27.2568L8.95556 26.9944C8.95556 26.9944 9.07407 26.4257 9.08889 26.3746C9.06667 26.3601 8.79259 26.1997 8.53333 26.0174C8.26667 25.8278 8.00741 25.6164 7.98519 25.6018C7.93333 25.631 7.42222 25.9299 7.42222 25.9299L7.02222 25.5945L9.51852 24.2093L9.54074 24.1947ZM8.35556 25.3758C8.4 25.4123 8.57778 25.5508 8.75556 25.682C8.94074 25.806 9.11852 25.9226 9.17037 25.9518C9.2 25.8351 9.38519 24.9238 9.42222 24.7561C9.27407 24.8363 8.46667 25.3102 8.35556 25.3758ZM11.2296 25.2154C11.2296 25.2154 11.6593 25.4269 12.2741 25.631C12.6963 25.7768 13.0444 25.8862 13.4 25.9591L13.2815 26.3601C13.2815 26.3601 12.9481 26.3017 12.4074 26.1413C12.3778 26.2288 11.6741 28.2046 11.6741 28.2046L11.1926 28.0369C11.1926 28.0369 11.8963 26.0539 11.9259 25.9664C11.4222 25.7841 11.0741 25.5945 11.0741 25.5945L11.2296 25.2154ZM19.6519 25.7476C19.8296 25.8351 19.9556 25.9955 20.0222 26.2288C20.0519 26.3236 20.0667 26.4184 20.0667 26.5059C20.0667 26.8704 19.8074 27.162 19.3333 27.3079C19.3333 27.3079 19.0963 27.3808 19.0222 27.4026C19.0519 27.4828 19.3333 28.3723 19.3333 28.3723L18.8667 28.4889L18.0741 25.9591L18.7852 25.7404C19.1407 25.631 19.4296 25.6383 19.6519 25.7476ZM18.6593 26.2215C18.6815 26.3017 18.8815 26.9142 18.9037 26.9944C19 26.9652 19.2148 26.8996 19.2148 26.8996C19.2889 26.8777 19.4519 26.8121 19.5333 26.6663C19.563 26.6152 19.5704 26.5642 19.5704 26.5059C19.5704 26.4621 19.563 26.4184 19.5481 26.3674C19.5185 26.2799 19.4593 26.207 19.3778 26.1632C19.237 26.0903 19.037 26.1049 18.9185 26.1413C18.9185 26.1413 18.7259 26.1997 18.6593 26.2215ZM21.237 24.6468L23.5481 26.3163L23.1407 26.6007C23.1407 26.6007 22.6741 26.2507 22.6296 26.2215C22.6 26.2361 22.363 26.4038 22.1037 26.5496C21.8593 26.6954 21.6 26.8194 21.5704 26.834C21.5852 26.8923 21.6741 27.4537 21.6741 27.4537L21.2296 27.6578L20.8444 24.8655L21.237 24.6468ZM21.5037 26.4111C21.5704 26.3819 21.7556 26.2799 21.9333 26.1778C22.0889 26.083 22.2222 26.0028 22.2815 25.9518C22.1852 25.8789 21.4667 25.3394 21.3185 25.23C21.3482 25.4123 21.4889 26.2944 21.5037 26.4111ZM23.8815 22.3502L25.8963 24.1218L25.5333 24.5374C25.5333 24.5374 23.6444 23.9906 23.3556 23.9177C23.5704 24.1145 24.7407 25.3321 24.7407 25.3321L24.3852 25.6456L22.4815 23.7427L22.9259 23.349C22.9259 23.349 24.7481 23.8812 25.037 23.9614C24.8222 23.7646 23.563 22.7001 23.563 22.7001L23.8815 22.3502ZM24.8 21.0233L27.1333 22.3575L26.8963 22.7585L24.5481 21.4243L24.8 21.0233ZM25.8148 18.8215L26.2148 19.0256L26.1778 19.0694C26.0444 19.2225 25.9926 19.3027 25.9259 19.4777C25.8963 19.5579 25.8593 19.711 25.9185 19.8276C25.9482 19.8859 26 19.9297 26.0815 19.9588C26.2593 20.0172 26.4148 19.8641 26.5926 19.6891C26.837 19.4412 27.1481 19.135 27.637 19.3027C28.1407 19.4704 28.3111 19.9078 28.1037 20.5056C28.0444 20.6879 27.9259 20.841 27.8222 20.9868L27.8 21.016L27.3852 20.8264L27.4296 20.7754C27.4815 20.7171 27.6519 20.5202 27.7185 20.3234C27.7852 20.1484 27.7778 19.8568 27.5037 19.7693C27.2815 19.6964 27.1111 19.8641 26.9185 20.0609C26.6815 20.3088 26.4074 20.5786 25.963 20.4327C25.763 20.3671 25.6222 20.2432 25.5333 20.0828C25.4296 19.8859 25.4296 19.6308 25.5259 19.361C25.5852 19.1787 25.6889 18.9965 25.8 18.8507L25.8148 18.8215Z" fill="#333333"/>
<path d="M37.326 3.75894H40.4593V4.64841H38.4593V6.31068H40.3705V7.20015H38.4593V9.86125H37.3186V3.75894H37.326Z" fill="#333333"/>
<path d="M42.9482 5.28998C43.8815 5.28998 44.9556 5.77116 44.9556 7.60842C44.9556 9.4967 43.8815 9.93414 42.9482 9.93414C42.0148 9.93414 40.9333 9.4967 40.9333 7.60842C40.9333 5.77116 42.0148 5.28998 42.9482 5.28998ZM42.9482 9.16133C43.6593 9.16133 43.8222 8.35936 43.8222 7.60842C43.8222 6.85748 43.6593 6.06279 42.9482 6.06279C42.2371 6.06279 42.0667 6.85748 42.0667 7.60842C42.0667 8.35936 42.2371 9.16133 42.9482 9.16133Z" fill="#333333"/>
<path d="M47.7185 5.28998C48.6519 5.28998 49.726 5.77116 49.726 7.60842C49.726 9.4967 48.6519 9.93414 47.7185 9.93414C46.7852 9.93414 45.7037 9.4967 45.7037 7.60842C45.7037 5.77116 46.7852 5.28998 47.7185 5.28998ZM47.7185 9.16133C48.4297 9.16133 48.5926 8.35936 48.5926 7.60842C48.5926 6.85748 48.4297 6.06279 47.7185 6.06279C47.0074 6.06279 46.8371 6.85748 46.8371 7.60842C46.8371 8.35936 47.0074 9.16133 47.7185 9.16133Z" fill="#333333"/>
<path d="M54.3556 3.30692V9.09572C54.3556 9.41651 54.363 9.70085 54.3926 9.86853H53.363C53.3482 9.7373 53.326 9.47484 53.326 9.16863H53.2963C53.1186 9.55503 52.7926 9.94144 52.0815 9.94144C50.9408 9.94144 50.4741 8.877 50.4741 7.623C50.4741 6.15757 51.0667 5.29727 52.0519 5.29727C52.7112 5.29727 53.0741 5.66181 53.2371 6.01176H53.2519V3.30692H54.3556ZM52.3778 9.13217C53.0297 9.13217 53.2445 8.43956 53.2445 7.59384C53.2445 6.71896 52.9926 6.08467 52.3926 6.08467C51.7778 6.08467 51.5704 6.66792 51.5704 7.57197C51.5704 8.60724 51.7408 9.13217 52.3778 9.13217Z" fill="#333333"/>
<path d="M57.8964 5.61806C58.2075 5.47953 58.6445 5.28268 59.3482 5.28268C60.7705 5.28268 61.0964 5.96801 61.0964 7.09077V9.05926C61.0964 9.38005 61.1334 9.67897 61.1556 9.85395H60.1631C60.1112 9.67897 60.1038 9.46025 60.1038 9.24153H60.089C59.8149 9.60606 59.4668 9.92685 58.8075 9.92685C58.0964 9.92685 57.4371 9.44567 57.4371 8.60724C57.4371 7.3824 58.4519 7.07619 59.8445 7.07619H60.0668V6.9158C60.0668 6.47107 59.8445 6.0555 59.2149 6.0555C58.6668 6.0555 58.1779 6.31796 57.9631 6.49294L57.8964 5.61806ZM60.0594 7.65945H59.9631C59.0223 7.65945 58.4594 7.84901 58.4594 8.50517C58.4594 8.91345 58.7334 9.19778 59.1631 9.19778C59.8223 9.19778 60.0594 8.7166 60.0594 7.91462V7.65945Z" fill="#333333"/>
<path d="M62.1111 6.09924C62.1111 5.8222 62.1037 5.55973 62.0741 5.35559H63.1037C63.1111 5.58161 63.1408 5.8222 63.1408 6.04821H63.1556C63.3185 5.77845 63.6297 5.28998 64.3704 5.28998C65.4074 5.28998 65.7185 6.04821 65.7185 6.95954V9.86124H64.6148V7.15639C64.6148 6.46378 64.4371 6.17944 63.9852 6.17944C63.4074 6.17944 63.2074 6.66063 63.2074 7.23659V9.86124H62.1037V6.09924H62.1111Z" fill="#333333"/>
<path d="M70.4741 3.30692V9.09572C70.4741 9.41651 70.4815 9.70085 70.5112 9.86853H69.4815C69.4667 9.7373 69.4445 9.47484 69.4445 9.16863H69.4149C69.2371 9.55503 68.9112 9.94144 68.2001 9.94144C67.0593 9.94144 66.5927 8.877 66.5927 7.623C66.5927 6.15757 67.1852 5.29727 68.1704 5.29727C68.8297 5.29727 69.1926 5.66181 69.3556 6.01176H69.3704V3.30692H70.4741ZM68.5038 9.13217C69.1556 9.13217 69.3704 8.43956 69.3704 7.59384C69.3704 6.71896 69.1186 6.08467 68.5186 6.08467C67.9038 6.08467 67.6964 6.66792 67.6964 7.57197C67.6964 8.60724 67.8667 9.13217 68.5038 9.13217Z" fill="#333333"/>
<path d="M76.5779 8.38853H74.4446L74.0001 9.86125H72.8594L74.9409 3.75894H76.1853L78.1853 9.86125H77.0149L76.5779 8.38853ZM76.3409 7.53552L75.5557 4.68486H75.5409L74.689 7.53552H76.3409Z" fill="#333333"/>
<path d="M78.8741 10.5611C79.1333 10.6997 79.6445 10.9476 80.2222 10.9476C81.2593 10.9476 81.4296 10.2404 81.4296 9.53316V9.10301H81.4148C81.2371 9.45296 80.9259 9.86124 80.2074 9.86124C79.5704 9.86124 78.6074 9.43838 78.6074 7.623C78.6074 6.38358 79.0593 5.28998 80.2593 5.28998C80.9259 5.28998 81.2371 5.66909 81.4667 6.06279H81.5037C81.5037 5.82949 81.5333 5.59619 81.5408 5.36288H82.5333C82.5185 5.59619 82.4963 5.83678 82.4963 6.07008V9.39463C82.4963 10.8017 82.0593 11.8079 80.3852 11.8079C79.6593 11.8079 79.0815 11.6256 78.8148 11.5308L78.8741 10.5611ZM80.4667 9.06655C81.163 9.06655 81.4371 8.57808 81.4371 7.55738C81.4371 6.61688 81.0741 6.10653 80.5482 6.11383C79.9704 6.12112 79.7482 6.64605 79.7482 7.56467C79.7482 8.62182 80.0963 9.06655 80.4667 9.06655Z" fill="#333333"/>
<path d="M83.5408 6.09924C83.5408 5.8222 83.5334 5.55973 83.5038 5.35559H84.4964C84.5038 5.62535 84.5334 5.90969 84.5334 6.17944H84.5482C84.6816 5.82949 85.0297 5.28998 85.7112 5.28998C85.7853 5.28998 85.8371 5.30456 85.8964 5.31914V6.33255C85.8001 6.30338 85.7038 6.2888 85.5853 6.2888C85.1334 6.2888 84.6371 6.55856 84.6371 7.39699V9.86124H83.5334V6.09924H83.5408Z" fill="#333333"/>
<path d="M86.7186 3.44543H87.8594V4.50987H86.7186V3.44543ZM86.7334 5.35559H87.8371V9.86124H86.7334V5.35559Z" fill="#333333"/>
<path d="M92.0444 9.74459C91.7852 9.83936 91.4074 9.92685 90.963 9.92685C89.4519 9.92685 88.8148 8.88428 88.8148 7.60841C88.8148 6.32525 89.4889 5.28268 91.0296 5.28268C91.3778 5.28268 91.7852 5.38475 91.9926 5.46495L91.9185 6.33254C91.7259 6.23776 91.4445 6.11382 91.1482 6.11382C90.3111 6.11382 89.9482 6.66792 89.9482 7.623C89.9482 8.46142 90.3556 9.1103 91.2 9.1103C91.4667 9.1103 91.8296 8.98635 91.9852 8.89157L92.0444 9.74459Z" fill="#333333"/>
<path d="M96.3334 9.11759C96.3334 9.39463 96.3409 9.6571 96.3705 9.86124H95.3409C95.3334 9.63522 95.3038 9.39463 95.3038 9.16862L95.2742 9.16133L95.2816 9.16862C95.0668 9.50399 94.7853 9.92685 94.0668 9.92685C93.0297 9.92685 92.7186 9.16862 92.7186 8.25728V5.35559H93.8223V8.06044C93.8223 8.75305 94.0149 9.03739 94.4816 9.03739C95.0668 9.03739 95.2372 8.51246 95.2372 7.93649V5.35559H96.3408V9.11759H96.3334Z" fill="#333333"/>
<path d="M97.4371 3.30692H98.5408V9.86124H97.4371V3.30692Z" fill="#333333"/>
<path d="M100.044 4.42967L101.148 4.0943V5.35559H102.059V6.15027H101.148V8.48329C101.148 8.96448 101.326 9.103 101.644 9.103C101.837 9.103 101.985 9.05197 102.059 9.00822V9.78103C101.889 9.86123 101.652 9.92685 101.319 9.92685C100.504 9.92685 100.037 9.56231 100.037 8.61452V6.15027H99.3112V5.35559H100.037V4.42967H100.044Z" fill="#333333"/>
<path d="M106.378 9.11759C106.378 9.39463 106.385 9.6571 106.415 9.86124H105.385C105.378 9.63522 105.348 9.39463 105.348 9.16862L105.319 9.16133L105.326 9.16862C105.111 9.50399 104.83 9.92685 104.111 9.92685C103.074 9.92685 102.763 9.16862 102.763 8.25728V5.35559H103.867V8.06044C103.867 8.75305 104.059 9.03739 104.526 9.03739C105.111 9.03739 105.282 8.51246 105.282 7.93649V5.35559H106.385V9.11759H106.378Z" fill="#333333"/>
<path d="M107.408 6.09924C107.408 5.8222 107.4 5.55973 107.37 5.35559H108.363C108.37 5.62535 108.4 5.90969 108.4 6.17944H108.415C108.548 5.82949 108.896 5.28998 109.578 5.28998C109.652 5.28998 109.704 5.30456 109.763 5.31914V6.33255C109.667 6.30338 109.57 6.2888 109.452 6.2888C109 6.2888 108.504 6.55856 108.504 7.39699V9.86124H107.408V6.09924Z" fill="#333333"/>
<path d="M113.763 9.64252C113.533 9.7373 113.052 9.93415 112.393 9.93415C110.919 9.93415 110.281 8.89158 110.281 7.68133C110.281 6.33255 111 5.29727 112.163 5.29727C113.148 5.29727 113.993 5.86595 113.993 7.7032V7.91463H111.348C111.348 8.68015 111.659 9.14675 112.511 9.14675C113.185 9.14675 113.504 8.94262 113.711 8.7968L113.763 9.64252ZM112.933 7.22201C112.933 6.42733 112.667 6.02634 112.17 6.02634C111.593 6.02634 111.356 6.63147 111.356 7.22201H112.933Z" fill="#333333"/>
<path d="M39.5482 13.5503C40.8371 13.5503 42.0149 14.4908 42.0149 16.6926C42.0149 18.8871 40.8371 19.8349 39.5482 19.8349C38.2593 19.8349 37.0815 18.8944 37.0815 16.6926C37.0815 14.4981 38.2593 13.5503 39.5482 13.5503ZM39.5482 18.9746C40.2667 18.9746 40.8445 18.3695 40.8445 16.6926C40.8445 15.0158 40.2667 14.4106 39.5482 14.4106C38.8297 14.4106 38.2519 15.0158 38.2519 16.6926C38.2519 18.3695 38.8297 18.9746 39.5482 18.9746Z" fill="#333333"/>
<path d="M42.9556 15.9781C42.9556 15.7011 42.9482 15.4386 42.9186 15.2345H43.9112C43.9186 15.5042 43.9482 15.7886 43.9482 16.0583H43.963C44.0964 15.7084 44.4445 15.1689 45.126 15.1689C45.2001 15.1689 45.2519 15.1834 45.3112 15.198V16.2114C45.2149 16.1823 45.1186 16.1677 45.0001 16.1677C44.5482 16.1677 44.0519 16.4374 44.0519 17.2759V19.7401H42.9482V15.9781H42.9556Z" fill="#333333"/>
<path d="M46.1038 20.44C46.3631 20.5785 46.8742 20.8264 47.452 20.8264C48.489 20.8264 48.6594 20.1192 48.6594 19.412V18.9819H48.6446C48.4668 19.3318 48.1557 19.7401 47.4372 19.7401C46.8001 19.7401 45.8372 19.3173 45.8372 17.5019C45.8372 16.2625 46.289 15.1689 47.489 15.1689C48.1557 15.1689 48.4668 15.548 48.6964 15.9417H48.7335C48.7335 15.7084 48.7631 15.4751 48.7705 15.2418H49.7631C49.7483 15.4751 49.726 15.7157 49.726 15.949V19.2735C49.726 20.6806 49.289 21.6867 47.6149 21.6867C46.889 21.6867 46.3112 21.5045 46.0446 21.4097L46.1038 20.44ZM47.689 18.9454C48.3853 18.9454 48.6594 18.457 48.6594 17.429C48.6594 16.4885 48.2964 15.9781 47.7705 15.9854C47.1927 15.9927 46.9705 16.5176 46.9705 17.4363C46.9705 18.5007 47.3186 18.9454 47.689 18.9454Z" fill="#333333"/>
<path d="M50.9481 15.4969C51.2593 15.3584 51.6963 15.1616 52.4 15.1616C53.8222 15.1616 54.1481 15.8469 54.1481 16.9696V18.9381C54.1481 19.2589 54.1852 19.5578 54.2074 19.7328H53.2148C53.163 19.5578 53.1556 19.3391 53.1556 19.1204H53.1407C52.8667 19.4849 52.5185 19.8057 51.8593 19.8057C51.1481 19.8057 50.4889 19.3245 50.4889 18.4861C50.4889 17.2613 51.5037 16.9551 52.8963 16.9551H53.1185V16.7874C53.1185 16.3427 52.8963 15.9271 52.2667 15.9271C51.7185 15.9271 51.2296 16.1895 51.0148 16.3645L50.9481 15.4969ZM53.1185 17.5383H53.0222C52.0815 17.5383 51.5185 17.7279 51.5185 18.384C51.5185 18.7923 51.7926 19.0767 52.2222 19.0767C52.8815 19.0767 53.1185 18.5955 53.1185 17.7935V17.5383Z" fill="#333333"/>
<path d="M55.1705 15.9781C55.1705 15.7011 55.1631 15.4386 55.1334 15.2345H56.1631C56.1705 15.4605 56.2001 15.7011 56.2001 15.9271H56.2149C56.3779 15.6573 56.689 15.1689 57.4297 15.1689C58.4668 15.1689 58.7779 15.9271 58.7779 16.8384V19.7401H57.6742V17.0353C57.6742 16.3427 57.4964 16.0583 57.0445 16.0583C56.4668 16.0583 56.2668 16.5395 56.2668 17.1155V19.7401H55.1631V15.9781H55.1705Z" fill="#333333"/>
<path d="M59.8667 13.3243H61V14.3887H59.8667V13.3243ZM59.8815 15.2345H60.9852V19.7401H59.8815V15.2345Z" fill="#333333"/>
<path d="M61.8371 18.8069L63.7927 16.0583H61.8964V15.2345H64.889V16.1604L62.9705 18.9163H64.9482V19.7401H61.8297V18.8069H61.8371Z" fill="#333333"/>
<path d="M65.9186 15.4969C66.2297 15.3584 66.6668 15.1616 67.3705 15.1616C68.7927 15.1616 69.1186 15.8469 69.1186 16.9696V18.9381C69.1186 19.2589 69.1556 19.5578 69.1779 19.7328H68.1853C68.1334 19.5578 68.126 19.3391 68.126 19.1204H68.1112C67.8371 19.4849 67.489 19.8057 66.8297 19.8057C66.1186 19.8057 65.4594 19.3245 65.4594 18.4861C65.4594 17.2613 66.4742 16.9551 67.8668 16.9551H68.089V16.7874C68.089 16.3427 67.8668 15.9271 67.2371 15.9271C66.689 15.9271 66.2001 16.1895 65.9853 16.3645L65.9186 15.4969ZM68.089 17.5383H67.9927C67.0519 17.5383 66.489 17.7279 66.489 18.384C66.489 18.7923 66.7631 19.0767 67.1927 19.0767C67.8519 19.0767 68.089 18.5955 68.089 17.7935V17.5383Z" fill="#333333"/>
<path d="M70.5482 14.3085L71.6519 13.9732V15.2345H72.563V16.0291H71.6519V18.3622C71.6519 18.8434 71.8296 18.9819 72.1482 18.9819C72.3407 18.9819 72.4889 18.9308 72.563 18.8871V19.6599C72.3926 19.7401 72.1556 19.8057 71.8222 19.8057C71.0074 19.8057 70.5407 19.4412 70.5407 18.4934V16.0291H69.8148V15.2345H70.5407V14.3085H70.5482Z" fill="#333333"/>
<path d="M73.3556 13.3243H74.4889V14.3887H73.3556V13.3243ZM73.3704 15.2345H74.4741V19.7401H73.3704V15.2345Z" fill="#333333"/>
<path d="M77.4667 15.1689C78.4001 15.1689 79.4741 15.65 79.4741 17.4873C79.4741 19.3756 78.4001 19.813 77.4667 19.813C76.5334 19.813 75.4519 19.3756 75.4519 17.4873C75.4519 15.65 76.5334 15.1689 77.4667 15.1689ZM77.4667 19.0402C78.1778 19.0402 78.3408 18.2382 78.3408 17.4873C78.3408 16.7364 78.1778 15.9417 77.4667 15.9417C76.7556 15.9417 76.5852 16.7364 76.5852 17.4873C76.5852 18.2382 76.7556 19.0402 77.4667 19.0402Z" fill="#333333"/>
<path d="M80.3407 15.9781C80.3407 15.7011 80.3333 15.4386 80.3037 15.2345H81.3333C81.3407 15.4605 81.3704 15.7011 81.3704 15.9271H81.3852C81.5482 15.6573 81.8593 15.1689 82.6 15.1689C83.637 15.1689 83.9482 15.9271 83.9482 16.8384V19.7401H82.8444V17.0353C82.8444 16.3427 82.6667 16.0583 82.2148 16.0583C81.637 16.0583 81.437 16.5395 81.437 17.1155V19.7401H80.3333V15.9781H80.3407Z" fill="#333333"/>
<path d="M89.1482 15.1689C90.0816 15.1689 91.1556 15.65 91.1556 17.4873C91.1556 19.3756 90.0816 19.813 89.1482 19.813C88.2149 19.813 87.1334 19.3756 87.1334 17.4873C87.1334 15.65 88.2149 15.1689 89.1482 15.1689ZM89.1482 19.0402C89.8593 19.0402 90.0223 18.2382 90.0223 17.4873C90.0223 16.7364 89.8593 15.9417 89.1482 15.9417C88.4371 15.9417 88.2668 16.7364 88.2668 17.4873C88.2742 18.2382 88.4371 19.0402 89.1482 19.0402Z" fill="#333333"/>
<path d="M92.3853 16.0365H91.6223V15.2418H92.3853V14.3232C92.3853 13.6743 92.6964 13.0837 93.6964 13.0837C93.9927 13.0837 94.2742 13.1421 94.489 13.1858L94.4445 13.9732C94.3112 13.9368 94.1705 13.9003 94.0075 13.9003C93.689 13.9003 93.4816 14.119 93.4816 14.4617V15.2418H94.3186V16.0365H93.4816V19.7401H92.3779V16.0365H92.3853Z" fill="#333333"/>
<path d="M97.7038 14.3085L98.8075 13.9732V15.2345H99.7186V16.0291H98.8075V18.3622C98.8075 18.8434 98.9853 18.9819 99.3038 18.9819C99.4964 18.9819 99.6445 18.9308 99.7186 18.8871V19.6599C99.5482 19.7401 99.3112 19.8057 98.9779 19.8057C98.163 19.8057 97.6964 19.4412 97.6964 18.4934V16.0291H96.9705V15.2345H97.6964V14.3085H97.7038Z" fill="#333333"/>
<path d="M100.415 13.1858H101.519V15.8177H101.548C101.741 15.5407 102 15.1689 102.689 15.1689C103.726 15.1689 104.037 15.9271 104.037 16.8384V19.7401H102.933V17.0353C102.933 16.3427 102.756 16.0583 102.304 16.0583C101.726 16.0583 101.526 16.5395 101.526 17.1155V19.7401H100.422V13.1858H100.415Z" fill="#333333"/>
<path d="M108.385 19.5214C108.156 19.6162 107.674 19.813 107.015 19.813C105.541 19.813 104.904 18.7705 104.904 17.5602C104.904 16.2114 105.622 15.1761 106.785 15.1761C107.77 15.1761 108.615 15.7448 108.615 17.5821V17.7935H105.97C105.97 18.5663 106.282 19.0256 107.133 19.0256C107.808 19.0256 108.126 18.8215 108.333 18.6757L108.385 19.5214ZM107.548 17.1009C107.548 16.3062 107.282 15.9052 106.785 15.9052C106.208 15.9052 105.97 16.5103 105.97 17.1009H107.548Z" fill="#333333"/>
<path d="M38.4149 23.5167V27.4682C38.4149 28.4817 38.726 28.817 39.3926 28.817C40.0445 28.817 40.363 28.4817 40.363 27.4682V23.5167H41.5038V27.4682C41.5038 29.0795 40.563 29.7065 39.4001 29.7065C38.2297 29.7065 37.2889 29.0795 37.2889 27.4682V23.5167H38.4149Z" fill="#333333"/>
<path d="M42.5927 25.857C42.5927 25.58 42.5853 25.3175 42.5557 25.1133H43.5853C43.5927 25.3394 43.6223 25.58 43.6223 25.806H43.6371C43.8001 25.5362 44.1112 25.0477 44.852 25.0477C45.889 25.0477 46.2001 25.806 46.2001 26.7173V29.619H45.1112V26.9141C45.1112 26.2215 44.9334 25.9372 44.4816 25.9372C43.9038 25.9372 43.7038 26.4184 43.7038 26.9943V29.619H42.5927V25.857Z" fill="#333333"/>
<path d="M47.2889 23.2032H48.4297V24.2676H47.2889V23.2032ZM47.3112 25.1206H48.4149V29.6263H47.3112V25.1206Z" fill="#333333"/>
<path d="M49.9186 24.1875L51.0223 23.8521V25.1134H51.9335V25.9081H51.0223V28.2411C51.0223 28.7223 51.2001 28.8608 51.5186 28.8608C51.7112 28.8608 51.8594 28.8097 51.9335 28.766V29.5388C51.7631 29.619 51.526 29.6846 51.1927 29.6846C50.3779 29.6846 49.9112 29.3201 49.9112 28.3723V25.9081H49.1853V25.1134H49.9112V24.1875H49.9186Z" fill="#333333"/>
<path d="M55.9927 29.4003C55.7631 29.4951 55.2816 29.6919 54.6223 29.6919C53.1483 29.6919 52.5112 28.6493 52.5112 27.4391C52.5112 26.0903 53.2297 25.055 54.3927 25.055C55.3779 25.055 56.2223 25.6237 56.2223 27.4609V27.6724H53.5779C53.5779 28.4452 53.889 28.9045 54.7409 28.9045C55.4149 28.9045 55.7335 28.7004 55.9409 28.5546L55.9927 29.4003ZM55.1631 26.9798C55.1631 26.1851 54.8964 25.7841 54.4001 25.7841C53.8223 25.7841 53.5853 26.3892 53.5853 26.9798H55.1631Z" fill="#333333"/>
<path d="M60.837 23.0647V28.8535C60.837 29.1743 60.8445 29.4586 60.8741 29.6263H59.8445C59.8296 29.4951 59.8074 29.2326 59.8074 28.9264H59.7778C59.6 29.3128 59.2741 29.6992 58.563 29.6992C57.4222 29.6992 56.9556 28.6348 56.9556 27.3808C56.9556 25.9153 57.5482 25.055 58.5333 25.055C59.1926 25.055 59.5556 25.4196 59.7185 25.7695H59.7333V23.0647H60.837ZM58.8593 28.8972C59.5111 28.8972 59.7259 28.2046 59.7259 27.3589C59.7259 26.484 59.4741 25.8497 58.8741 25.8497C58.2593 25.8497 58.0519 26.433 58.0519 27.337C58.0519 28.3723 58.2222 28.8972 58.8593 28.8972Z" fill="#333333"/>
<path d="M64.3037 23.5167H65.6519L67.7111 28.3067H67.7259V23.5167H68.7556V29.619H67.4074L65.3556 24.8655H65.3333V29.619H64.3037V23.5167Z" fill="#333333"/>
<path d="M70.126 25.3758C70.4371 25.2373 70.8742 25.0405 71.5779 25.0405C73.0001 25.0405 73.326 25.7258 73.326 26.8486V28.817C73.326 29.1378 73.363 29.4368 73.3853 29.6117H72.3927C72.3408 29.4368 72.3334 29.218 72.3334 28.9993H72.3186C72.0445 29.3638 71.6964 29.6846 71.0371 29.6846C70.326 29.6846 69.6667 29.2034 69.6667 28.365C69.6667 27.1402 70.6816 26.834 72.0742 26.834H72.2964V26.6736C72.2964 26.2288 72.0742 25.8133 71.4445 25.8133C70.8964 25.8133 70.4075 26.0757 70.1927 26.2507L70.126 25.3758ZM72.2964 27.4172H72.2001C71.2593 27.4172 70.6964 27.6068 70.6964 28.263C70.6964 28.6712 70.9704 28.9556 71.4001 28.9556C72.0593 28.9556 72.2964 28.4744 72.2964 27.6724V27.4172Z" fill="#333333"/>
<path d="M74.7557 24.1875L75.8594 23.8521V25.1134H76.7705V25.9081H75.8594V28.2411C75.8594 28.7223 76.0372 28.8608 76.3557 28.8608C76.5483 28.8608 76.6964 28.8097 76.7705 28.766V29.5388C76.6001 29.619 76.3631 29.6846 76.0297 29.6846C75.2149 29.6846 74.7483 29.3201 74.7483 28.3723V25.9081H74.0223V25.1134H74.7483V24.1875H74.7557Z" fill="#333333"/>
<path d="M77.563 23.2032H78.7037V24.2676H77.563V23.2032ZM77.5778 25.1206H78.6815V29.6263H77.5778V25.1206Z" fill="#333333"/>
<path d="M81.6741 25.0477C82.6075 25.0477 83.6815 25.5289 83.6815 27.3662C83.6815 29.2545 82.6075 29.6919 81.6741 29.6919C80.7408 29.6919 79.6593 29.2545 79.6593 27.3662C79.6593 25.5289 80.7408 25.0477 81.6741 25.0477ZM81.6741 28.9191C82.3852 28.9191 82.5482 28.1171 82.5482 27.3662C82.5482 26.6152 82.3852 25.8205 81.6741 25.8205C80.963 25.8205 80.7926 26.6152 80.7926 27.3662C80.7926 28.1171 80.963 28.9191 81.6741 28.9191Z" fill="#333333"/>
<path d="M84.5483 25.857C84.5483 25.58 84.5409 25.3175 84.5112 25.1133H85.5409C85.5483 25.3394 85.5779 25.58 85.5779 25.806H85.5927C85.7557 25.5362 86.0668 25.0477 86.8075 25.0477C87.8446 25.0477 88.1557 25.806 88.1557 26.7173V29.619H87.052V26.9141C87.052 26.2215 86.8742 25.9372 86.4223 25.9372C85.8446 25.9372 85.6446 26.4184 85.6446 26.9943V29.619H84.5409V25.857H84.5483Z" fill="#333333"/>
<path d="M89.0371 28.5691C89.2149 28.642 89.6667 28.8681 90.1852 28.8681C90.5852 28.8681 90.8963 28.7733 90.8963 28.4233C90.8963 28.2483 90.8075 28.0807 90.4075 27.8546L89.9556 27.5922C89.4963 27.3224 88.9852 27.0308 88.9852 26.3236C88.9852 25.7039 89.6 25.0477 90.563 25.0477C91.1482 25.0477 91.6 25.1935 91.7112 25.23L91.6519 26.0684C91.3778 25.9664 91.0815 25.8643 90.6815 25.8643C90.2371 25.8643 90.0519 26.032 90.0519 26.3017C90.0519 26.5496 90.2445 26.6808 90.5704 26.8777L91.1112 27.2204C91.6815 27.5776 91.963 27.8328 91.963 28.3577C91.963 29.1888 91.2519 29.6846 90.2593 29.6846C89.6889 29.6846 89.2223 29.5534 88.9852 29.4659L89.0371 28.5691Z" fill="#333333"/>
</g>
<defs>
<clipPath id="clip0_181_6039">
<rect width="114" height="31" fill="white" transform="translate(0 0.5)"/>
</clipPath>
</defs>
</svg>