<svg width="27" height="36" viewBox="0 0 27 36" fill="none" xmlns="http://www.w3.org/2000/svg">
<rect x="0.5" y="22.5" width="1" height="13" fill="white"/>
<rect x="8.5" y="22.5" width="1" height="13" fill="white"/>
<rect x="13.5" y="17.5" width="1" height="18" fill="white"/>
<rect x="10.5" y="22.5" width="2" height="13" fill="white"/>
<rect x="19.5" y="22.5" width="1" height="13" fill="white"/>
<rect x="24.5" y="22.5" width="1" height="13" fill="white"/>
<rect x="21.5" y="22.5" width="2" height="13" fill="white"/>
<rect x="2.5" y="22.5" width="2" height="13" fill="white"/>
<rect x="5.5" y="22.5" width="2" height="13" fill="white"/>
<rect x="15.5" y="22.5" width="3" height="13" fill="white"/>
<path d="M5.17156 0.621609L4.77378 0.5L4.59974 0.864824C2.48594 4.99912 2.18756 8.59866 3.70441 11.4928C6.16625 16.2353 12.5318 17.3784 12.8054 17.427L13.2282 17.5L13.3525 17.0866C13.3774 16.965 14.2477 13.8277 13.6758 10.2283C13.1537 6.8478 11.2389 2.44581 5.17173 0.622069L5.17156 0.621609ZM4.54985 11.0547C3.23201 8.52551 3.48069 5.33952 5.27093 1.61844C9.52307 3.02895 12.0097 5.94738 12.7061 10.3005C13.0791 12.6353 12.8055 14.8239 12.5817 15.9671C8.97607 12.0514 7.80708 6.36043 7.78245 6.31182L6.8376 6.48204C6.8873 6.72525 7.98142 12.0268 11.413 16.0882C9.44829 15.4804 6.09153 14.0211 4.54969 11.0541L4.54985 11.0547Z" fill="white"/>
<path d="M26.3024 6.74571L25.901 6.69442C22.2631 6.12976 19.453 6.79701 17.6218 8.67079C14.586 11.6993 15.2382 16.8068 15.2634 17.0379L15.3135 17.5L15.7652 17.4743C15.8655 17.4743 18.4496 17.3459 21.0339 16.0112C23.4675 14.7793 26.3776 12.2383 26.3026 7.15643L26.3024 6.74571ZM20.6324 15.1129C19.3278 15.7801 18.0233 16.1139 17.095 16.2935C18.5501 14.7791 21.1844 12.0072 22.3637 10.493L21.611 9.87709C20.4318 11.417 17.5717 14.4201 16.1918 15.8314C16.1667 14.24 16.4176 11.2629 18.3243 9.36355C19.5537 8.10589 21.3099 7.48993 23.5429 7.48993C24.12 7.48993 24.7221 7.54123 25.3494 7.61828C25.2491 11.0319 23.6686 13.5472 20.6328 15.1128L20.6324 15.1129Z" fill="white"/>
</svg>