<svg width="25" height="24" viewBox="0 0 25 24" fill="none" xmlns="http://www.w3.org/2000/svg">
<path d="M12.9336 23.6218C6.31835 23.6218 0.933594 18.3219 0.933594 11.8109C0.933594 5.29991 6.31835 0 12.9336 0C19.5488 0 24.9336 5.29991 24.9336 11.8109C24.9336 18.3219 19.5488 23.6218 12.9336 23.6218ZM12.8884 7.15543C12.9054 7.15543 13.8649 8.16653 13.8649 8.97763C13.8649 9.85539 13.1707 10.0609 12.9336 10.0609C12.9223 10.0609 12.9054 10.0609 12.8941 10.0609H12.8828C12.8659 10.0609 12.8546 10.0609 12.8433 10.0609C12.6119 10.0609 11.912 9.84983 11.912 8.97763C11.912 8.16653 12.8715 7.15543 12.8884 7.15543ZM3.85175 12.4665H4.94676V10.4776H6.78684V9.64428H4.94676V8.53874H6.84893V7.70543H3.85175V12.4665ZM13.8819 7.29988H15.039L13.6956 2.53885H12.2224L10.8339 7.29988H11.9007L12.2055 6.23323H13.6053L13.8819 7.29988ZM13.4021 5.42769H12.3917L12.8602 3.3555H12.9392L13.4021 5.42769ZM18.4708 10.0887C18.4708 11.4887 19.1311 12.5498 20.5197 12.5498C21.9138 12.5498 22.5799 11.4887 22.5799 10.0887C22.5799 8.68874 21.9138 7.62765 20.5197 7.62765C19.1311 7.62765 18.4708 8.68874 18.4708 10.0887ZM19.6335 10.0887C19.6335 9.17762 19.8593 8.43319 20.5197 8.43319C21.1801 8.43319 21.4171 9.17762 21.4171 10.0887C21.4171 11.0054 21.1801 11.7442 20.5197 11.7442C19.8649 11.7442 19.6335 10.9998 19.6335 10.0887ZM12.42 22.3052C12.482 21.8441 12.5498 21.1052 12.5498 20.2385C12.5498 19.9997 12.5498 20.1608 12.5498 20.0941C12.5498 18.8775 12.5046 18.4608 11.6749 18.1941C10.3993 17.7775 9.87433 16.3775 10.1565 14.6275L5.88374 3.92771C3.65984 5.85546 2.26003 8.67208 2.26003 11.8109C2.26003 17.4386 6.77555 22.0441 12.42 22.3052ZM12.9279 15.4831C11.229 15.0942 10.5968 13.5664 10.5968 12.2165L6.85457 3.17772C6.61186 3.34439 6.3748 3.52216 6.14338 3.70549C6.96746 5.62768 10.6589 14.2498 10.6645 14.2609C11.3193 15.8108 12.5046 15.2942 12.7925 16.5775C12.8602 16.8886 12.8659 17.0219 12.8659 17.0219H12.9957C12.9957 17.0219 12.9957 16.8886 13.0691 16.5775C13.3569 15.2997 14.5422 15.8108 15.197 14.2609C15.2026 14.2498 18.8941 5.62213 19.7182 3.70549C19.4867 3.52216 19.2553 3.34439 19.007 3.17772L15.2704 12.2165C15.2704 13.572 14.6382 15.0942 12.9392 15.4831H12.9279ZM12.9279 12.7553C12.2055 12.5942 11.308 11.8942 11.1895 10.9831C11.15 10.6387 11.1161 10.5443 11.1669 9.85539L7.8875 2.55551C7.62221 2.6944 7.36821 2.84995 7.11421 3.01106C8.09634 5.17769 11.0935 11.7998 11.0935 11.8109C11.5676 12.7942 12.3974 12.8109 12.6852 13.3998C12.8602 13.7442 12.8715 14.0553 12.8771 14.0831H12.9844C12.9844 14.0609 13.007 13.7498 13.1763 13.3998C13.4642 12.8165 14.2995 12.7942 14.768 11.8109C14.768 11.8054 17.7708 5.17769 18.7473 3.01106C18.499 2.84995 18.2393 2.69995 17.974 2.55551L14.7003 9.86094C14.7511 10.5443 14.7172 10.6443 14.6721 10.9887C14.5535 11.8942 13.6561 12.5998 12.9392 12.7609H12.9279V12.7553ZM12.9731 11.5165L13.0239 11.1165C13.2327 10.1887 13.9157 10.3054 14.3842 9.39984C14.3842 9.39429 14.3898 9.38873 14.3898 9.38873C14.4011 9.3554 16.721 4.45548 17.6918 2.41107C16.2581 1.70553 14.6438 1.30553 12.9336 1.30553C11.2233 1.30553 9.60904 1.70553 8.16972 2.41107C9.13491 4.45548 11.4548 9.3554 11.4717 9.38873L11.4773 9.39984C11.9458 10.3054 12.6288 10.1943 12.8376 11.1165L12.8884 11.5165H12.9731ZM23.6072 11.8109C23.6072 8.67208 22.2017 5.85546 19.9835 3.92771L15.705 14.622C15.9872 16.3719 15.4623 17.7719 14.1867 18.1886C13.3569 18.4608 13.3118 18.8719 13.3118 20.0885C13.3118 20.1552 13.3118 19.9941 13.3118 20.233C13.3118 21.0996 13.3795 21.8385 13.4416 22.2996C19.0916 22.0441 23.6072 17.4386 23.6072 11.8109ZM5.63538 14.9164C5.63538 14.9164 5.79342 15.2442 5.92325 15.4831C6.05307 15.7164 6.2224 15.9997 6.2224 15.9997L5.94018 16.1608C5.94018 16.1608 5.72569 15.8108 5.52814 15.4053C5.47169 15.4331 5.13867 15.6053 5.08223 15.6331C5.1161 15.6942 5.4604 16.3497 5.4604 16.3497L5.17254 16.5108C5.17254 16.5108 4.82259 15.8386 4.79437 15.7831C4.73228 15.8108 4.00415 16.1831 4.00415 16.1831L3.82917 15.8442L5.6128 14.9331L5.63538 14.9164ZM6.75862 16.7108L7.00697 17.0053L5.44912 18.2886L5.19512 17.9941L6.74168 16.7219L6.75862 16.7108ZM8.20358 18.0553L8.51403 18.2719L8.11327 20.3885L7.75768 20.1885C7.75768 20.1885 7.84799 19.7552 7.85928 19.7163C7.84234 19.7052 7.6335 19.583 7.43595 19.4441C7.23275 19.2997 7.03519 19.1386 7.01826 19.1275C6.97875 19.1497 6.58929 19.3775 6.58929 19.3775L6.28449 19.1219L8.18665 18.0664L8.20358 18.0553ZM7.30048 18.9552C7.33435 18.983 7.46981 19.0886 7.60528 19.1886C7.74639 19.283 7.88185 19.3719 7.92136 19.3941C7.94394 19.3052 8.08505 18.6108 8.11327 18.483C8.00039 18.5441 7.38515 18.9052 7.30048 18.9552ZM9.49051 18.833C9.49051 18.833 9.81788 18.9941 10.2864 19.1497C10.6081 19.2608 10.8734 19.3441 11.1443 19.3997L11.054 19.7052C11.054 19.7052 10.8 19.6608 10.388 19.5386C10.3654 19.6052 9.82917 21.1108 9.82917 21.1108L9.46229 20.983C9.46229 20.983 9.9985 19.4719 10.0211 19.4052C9.63726 19.2663 9.37197 19.1219 9.37197 19.1219L9.49051 18.833ZM15.9082 19.2386C16.0437 19.3052 16.1396 19.4275 16.1904 19.6052C16.213 19.6774 16.2243 19.7497 16.2243 19.8163C16.2243 20.0941 16.0267 20.3163 15.6655 20.4274C15.6655 20.4274 15.4849 20.483 15.4284 20.4997C15.451 20.5608 15.6655 21.2385 15.6655 21.2385L15.3099 21.3274L14.7059 19.3997L15.2478 19.233C15.5187 19.1497 15.7389 19.1552 15.9082 19.2386ZM15.1518 19.5997C15.1688 19.6608 15.3212 20.1274 15.3381 20.1885C15.4115 20.1663 15.5752 20.1163 15.5752 20.1163C15.6316 20.0997 15.7558 20.0497 15.8179 19.9386C15.8405 19.8997 15.8461 19.8608 15.8461 19.8163C15.8461 19.783 15.8405 19.7497 15.8292 19.7108C15.8066 19.6441 15.7614 19.5886 15.6994 19.5552C15.5921 19.4997 15.4397 19.5108 15.3494 19.5386C15.3494 19.5386 15.2026 19.583 15.1518 19.5997ZM17.1161 18.3997L18.8771 19.6719L18.5667 19.8886C18.5667 19.8886 18.2111 19.6219 18.1772 19.5997C18.1547 19.6108 17.974 19.7386 17.7765 19.8497C17.5902 19.9608 17.3927 20.0552 17.3701 20.0663C17.3814 20.1108 17.4491 20.5385 17.4491 20.5385L17.1105 20.6941L16.8169 18.5664L17.1161 18.3997ZM17.3193 19.7441C17.3701 19.7219 17.5112 19.6441 17.6467 19.5663C17.7652 19.4941 17.8668 19.433 17.912 19.3941C17.8386 19.3386 17.2911 18.9275 17.1782 18.8441C17.2008 18.983 17.308 19.6552 17.3193 19.7441ZM19.1311 16.6497L20.6664 17.9997L20.3899 18.3164C20.3899 18.3164 18.9505 17.8997 18.7304 17.8441C18.8941 17.9941 19.7859 18.9219 19.7859 18.9219L19.515 19.1608L18.0644 17.7108L18.403 17.4108C18.403 17.4108 19.7915 17.8164 20.0117 17.8775C19.848 17.7275 18.8884 16.9164 18.8884 16.9164L19.1311 16.6497ZM19.8311 15.6386L21.609 16.6553L21.4284 16.9608L19.6391 15.9442L19.8311 15.6386ZM20.6043 13.9609L20.9091 14.1164L20.8809 14.1498C20.7793 14.2664 20.7398 14.3275 20.689 14.4609C20.6664 14.522 20.6382 14.6386 20.6834 14.7275C20.7059 14.772 20.7454 14.8053 20.8075 14.8275C20.943 14.872 21.0615 14.7553 21.197 14.622C21.3833 14.4331 21.6203 14.1998 21.9929 14.3275C22.3767 14.4553 22.5065 14.7886 22.3485 15.2442C22.3033 15.3831 22.213 15.4997 22.134 15.6108L22.117 15.6331L21.801 15.4886L21.8348 15.4497C21.8743 15.4053 22.0041 15.2553 22.0549 15.1053C22.1057 14.972 22.1001 14.7498 21.8913 14.6831C21.7219 14.6275 21.5921 14.7553 21.4454 14.9053C21.2647 15.0942 21.0559 15.2997 20.7172 15.1886C20.5648 15.1386 20.4576 15.0442 20.3899 14.922C20.3108 14.772 20.3108 14.5775 20.3842 14.372C20.4294 14.2331 20.5084 14.0942 20.593 13.9831L20.6043 13.9609Z" fill="#3169A7"/>
</svg>
