<svg width="25" height="24" viewBox="0 0 25 24" fill="none" xmlns="http://www.w3.org/2000/svg">
<g clip-path="url(#clip0_194_437)">
<path d="M12.4998 23.9997C19.1272 23.9997 24.4997 18.6272 24.4997 11.9998C24.4997 5.37251 19.1272 0 12.4998 0C5.87251 0 0.5 5.37251 0.5 11.9998C0.5 18.6272 5.87251 23.9997 12.4998 23.9997Z" fill="#8ED1EB"/>
<path d="M12.4033 6.58057H12.4032C10.5326 6.58057 9.01617 8.097 9.01617 9.96762V20.2256C9.01617 22.0962 10.5326 23.6126 12.4032 23.6126H12.4033C14.2739 23.6126 15.7903 22.0962 15.7903 20.2256V9.96762C15.7903 8.097 14.2739 6.58057 12.4033 6.58057Z" fill="white"/>
<path d="M22.7578 6.77414V6.77411C22.7578 4.85005 21.198 3.29028 19.274 3.29028L5.72575 3.29028C3.80168 3.29028 2.24192 4.85005 2.24192 6.77411V6.77414C2.24192 8.6982 3.80168 10.258 5.72575 10.258H19.274C21.198 10.258 22.7578 8.6982 22.7578 6.77414Z" fill="#022C3A"/>
<path fill-rule="evenodd" clip-rule="evenodd" d="M15.7903 10.2579H9.01617V9.96766C9.01617 8.09699 10.5326 6.58057 12.4032 6.58057C14.2738 6.58057 15.7903 8.09699 15.7903 9.96766V10.2579Z" fill="#8ED1EB"/>
</g>
<defs>
<clipPath id="clip0_194_437">
<rect width="24" height="24" fill="white" transform="translate(0.5)"/>
</clipPath>
</defs>
</svg>
